<?xml version="1.0" encoding="UTF-8"?>
<svg xmlns="http://www.w3.org/2000/svg" xmlns:xlink="http://www.w3.org/1999/xlink" width="960px" height="540px" viewBox="0 0 960 540" version="1.1">
<g id="surface1">
<rect x="0" y="0" width="960" height="540" style="fill:rgb(6.666667%,9.411765%,12.54902%);fill-opacity:1;stroke:none;"/>
<path style=" stroke:none;fill-rule:nonzero;fill:rgb(95.294118%,66.27451%,30.588235%);fill-opacity:1;" d="M 0 400 L 32 402.199219 C 64 404.300781 128 408.699219 192 415.800781 C 256 423 320 433 384 440.5 C 448 448 512 453 576 446.300781 C 640 439.699219 704 421.300781 768 416.300781 C 832 411.300781 896 419.699219 928 423.800781 L 960 428 L 960 541 L 928 541 C 896 541 832 541 768 541 C 704 541 640 541 576 541 C 512 541 448 541 384 541 C 320 541 256 541 192 541 C 128 541 64 541 32 541 L 0 541 Z M 0 400 "/>
</g>
</svg>
